<?xml version="1.0"?>
<svg width="1280" height="717" xmlns="http://www.w3.org/2000/svg" xmlns:svg="http://www.w3.org/2000/svg" preserveAspectRatio="xMidYMid meet">
 <metadata>Created by potrace 1.15, written by Peter Selinger 2001-2017</metadata>
 <g class="layer">
  <title>Layer 1</title>
  <g fill="#000000" id="svg_1" transform="rotate(-179.95 642.783 385.476) translate(0 717) scale(0.1 -0.1)">
   <path d="m6639.984797,6579.015165c-19,-1.989343 -82,-8.952042 -140,-14.92007c-523,-55.701595 -1058,-272.539948 -1490,-606.74952c-121,-93.499106 -319,-284.476005 -427,-411.793937c-206,-242.699808 -392,-569.946681 -487,-857.406699c-15,-45.754882 -32,-82.557722 -37,-82.557722c-5,0 -31,10.941385 -57,23.872112c-312,155.16873 -733,115.381876 -1022,-98.472463c-70,-51.72291 -183,-171.083471 -234,-248.667836c-98,-147.211359 -151,-300.390746 -163,-469.484875c-3,-50.728239 -9,-92.504435 -12,-92.504435c-3,0 -67,8.952042 -141,19.893427c-717,105.435163 -1450,-96.48312 -1915,-529.165155c-324,-300.390746 -479,-698.259284 -424,-1088.170451c42,-299.396075 221,-607.744192 482,-825.577216c424,-355.09767 994,-531.154498 1623,-500.319686c326,15.914742 632,90.515092 910,222.806381l111,51.72291l33,-80.568379c182,-451.580791 580,-780.817006 1070,-887.24684c130,-28.845469 470,-26.856126 596,2.984014c279,67.637651 504,186.998213 696,370.01774l98,93.499106l81,-36.80284c466,-211.864996 1035,-230.763752 1512,-49.733567c119,45.754882 303,141.243331 389,203.907626c37,26.856126 71,48.738896 74,48.738896c4,0 43,-34.813497 88,-77.584365c374,-355.09767 917,-579.893394 1471,-606.74952c545,-26.856126 1034,102.451149 1470,390.905838c132,86.536407 305,233.747766 396,334.209572c55,61.669623 183,223.801053 207,262.593235c5,7.957371 36,9.946713 97,5.968028c225,-13.925399 436,25.861455 628,119.360561c477,232.753095 733,741.030152 630,1252.291223c-21,104.440491 -48,179.040842 -104,288.45469c-171,332.220229 -500,563.978652 -884,623.658933c-125,18.898756 -325,11.936056 -438,-15.914742l-78,-18.898756l-97,99.467134c-343,352.113656 -817,591.82945 -1314,664.440458l-87,12.930727l-6,45.754882c-43,339.182929 -117,591.82945 -260,881.278811c-139,282.486662 -307,516.234428 -529,736.056795c-456,451.580791 -1040,735.062124 -1697,825.577216c-107,14.92007 -539,27.850798 -619,18.898756z" fill="black" id="svg_2"/>
  </g>
 </g>
</svg>